<?xml version="1.0" standalone="no"?>
<!DOCTYPE svg PUBLIC "-//W3C//DTD SVG 20010904//EN"
 "http://www.w3.org/TR/2001/REC-SVG-20010904/DTD/svg10.dtd">
<svg version="1.0" xmlns="http://www.w3.org/2000/svg"
 width="455.000000pt" height="218.000000pt" viewBox="0 0 455.000000 218.000000"
 preserveAspectRatio="xMidYMid meet">

<g transform="translate(0.000000,218.000000) scale(0.100000,-0.100000)"
fill="#000000" stroke="none">
<path d="M1050 1554 c-144 -39 -251 -157 -279 -308 -6 -33 -11 -74 -11 -93 0
-18 -16 -76 -36 -128 -43 -115 -39 -125 42 -125 l54 0 0 -66 c0 -108 23 -133
125 -134 87 0 116 -14 127 -60 5 -19 14 -52 19 -73 l10 -37 182 2 182 3 3 109
c2 88 6 112 19 121 16 12 16 14 -1 39 -13 20 -16 43 -14 94 3 74 -4 67 113
119 29 13 43 27 50 50 6 18 21 43 33 56 27 29 28 61 2 87 -28 28 -64 25 -89
-6 -28 -36 -26 -51 9 -84 17 -15 30 -32 30 -38 0 -16 -29 -36 -93 -62 -73 -30
-87 -51 -87 -133 0 -37 -6 -67 -17 -84 -16 -24 -16 -26 0 -38 14 -10 17 -30
17 -109 0 -89 -1 -96 -20 -96 -19 0 -20 7 -20 158 0 124 3 162 15 178 19 25
19 44 0 44 -11 0 -15 11 -15 43 0 48 13 67 45 67 38 0 55 31 55 97 0 54 3 63
25 77 17 11 25 26 25 46 0 32 -30 70 -54 70 -8 0 -18 10 -22 23 -11 39 -73
111 -122 144 -52 36 -144 63 -207 62 -22 0 -65 -7 -95 -15z m223 -34 c66 -25
129 -77 163 -136 24 -42 25 -46 10 -63 -25 -28 -21 -78 9 -97 21 -14 25 -24
25 -69 0 -57 -10 -71 -57 -84 -33 -9 -53 -42 -53 -92 0 -28 -5 -38 -20 -42
-19 -5 -20 0 -20 184 l0 188 26 24 c56 52 2 143 -63 107 -40 -22 -43 -71 -9
-104 l26 -23 0 -307 c0 -265 -2 -306 -15 -306 -19 0 -19 -17 0 -50 8 -14 14
-40 15 -57 0 -26 -4 -33 -20 -33 -19 0 -20 7 -20 135 0 113 2 135 15 135 19 0
19 21 0 46 -9 12 -14 43 -15 84 0 72 -18 110 -51 110 -35 0 -59 36 -59 89 0
40 4 51 24 64 35 23 39 65 10 94 -28 28 -58 29 -84 3 -27 -27 -25 -66 5 -94
21 -20 25 -32 25 -80 0 -60 22 -96 58 -96 10 0 23 -5 30 -12 17 -17 15 -137
-3 -168 -18 -32 -18 -40 0 -40 13 0 15 -22 15 -135 0 -128 -1 -135 -20 -135
-16 0 -20 7 -20 35 0 24 5 35 15 35 19 0 19 19 0 44 -11 15 -15 51 -15 151 0
155 -4 165 -91 196 -37 13 -67 32 -77 47 -15 23 -14 25 16 49 37 29 42 63 12
93 -26 26 -64 25 -90 -2 -27 -29 -25 -54 5 -84 14 -14 25 -33 25 -42 0 -32 29
-60 78 -76 93 -31 92 -29 92 -179 -1 -96 -5 -139 -15 -157 -18 -32 -18 -40 0
-40 10 0 15 -11 15 -35 0 -30 -3 -35 -24 -35 -15 0 -27 7 -30 18 -3 9 -10 37
-16 62 -19 72 -31 80 -125 80 -117 0 -129 11 -134 124 l-3 86 -59 0 c-32 0
-59 2 -59 5 0 3 16 47 35 96 24 62 35 107 35 143 0 108 56 227 136 290 94 75
236 97 347 56z m78 -116 c17 -21 0 -49 -31 -49 -31 0 -48 28 -31 49 8 9 21 16
31 16 10 0 23 -7 31 -16z m-170 -110 c9 -11 10 -20 2 -32 -15 -24 -44 -27 -59
-7 -28 38 27 75 57 39z m340 0 c17 -21 0 -49 -31 -49 -31 0 -48 28 -31 49 8 9
21 16 31 16 10 0 23 -7 31 -16z m-476 -129 c0 -25 -4 -30 -24 -30 -28 0 -47
25 -38 49 5 12 16 16 34 14 24 -3 28 -8 28 -33z m610 0 c0 -25 -4 -30 -24 -30
-28 0 -47 25 -38 49 5 12 16 16 34 14 24 -3 28 -8 28 -33z m-285 -381 c0 -92
-1 -94 -20 -84 -18 10 -20 21 -20 118 l1 107 19 -24 c17 -19 20 -38 20 -117z
m0 -164 c0 -53 -2 -60 -20 -60 -16 0 -20 7 -20 30 0 29 24 90 35 90 3 0 5 -27
5 -60z"/>
<path d="M2100 1055 l0 -125 25 0 25 0 0 125 0 125 -25 0 -25 0 0 -125z"/>
<path d="M2244 1166 c-49 -22 -74 -61 -74 -118 0 -43 4 -54 34 -84 30 -30 41
-34 84 -34 73 0 132 56 132 125 0 24 -2 25 -65 25 -63 0 -65 -1 -65 -25 0 -22
4 -25 35 -25 40 0 44 -9 15 -35 -28 -25 -80 -22 -103 6 -26 33 -19 87 16 112
24 19 31 20 63 8 27 -10 38 -10 49 -1 23 19 18 26 -25 44 -48 19 -56 19 -96 2z"/>
<path d="M2440 1055 l0 -125 25 0 25 0 0 125 0 125 -25 0 -25 0 0 -125z"/>
<path d="M2510 1155 c0 -21 5 -25 30 -25 l30 0 0 -100 0 -100 25 0 25 0 0 100
0 100 30 0 c25 0 30 4 30 25 0 25 -1 25 -85 25 -84 0 -85 0 -85 -25z"/>
<path d="M2900 1055 l0 -125 75 0 c73 0 75 1 75 25 0 23 -3 25 -50 25 l-50 0
0 100 0 100 -25 0 -25 0 0 -125z"/>
<path d="M3196 1159 c-36 -28 -36 -80 0 -108 15 -12 32 -21 38 -21 18 0 35
-21 29 -36 -6 -16 -43 -19 -43 -4 0 6 -11 10 -25 10 -30 0 -34 -29 -7 -53 25
-22 85 -22 104 1 40 47 27 96 -32 119 -26 11 -40 22 -40 34 0 26 19 33 39 15
24 -22 51 -20 51 3 0 22 -44 61 -70 61 -10 0 -29 -9 -44 -21z"/>
<path d="M3388 1071 c-65 -146 -64 -141 -39 -141 12 0 30 9 41 20 26 26 87 25
96 -2 3 -12 15 -18 34 -18 l29 0 -49 110 c-27 61 -53 116 -57 124 -5 9 -23
-21 -55 -93z m56 -59 c-21 -5 -24 0 -17 27 l6 23 13 -23 c11 -20 10 -25 -2
-27z"/>
<path d="M3570 1055 l0 -125 25 0 c23 0 25 3 25 50 l0 50 35 0 c31 0 35 3 35
25 0 22 -4 25 -35 25 -31 0 -35 3 -35 25 0 23 3 25 50 25 47 0 50 2 50 25 0
24 -2 25 -75 25 l-75 0 0 -125z"/>
<path d="M3740 1055 l0 -125 75 0 c73 0 75 1 75 25 0 23 -3 25 -50 25 -47 0
-50 2 -50 25 0 22 4 25 35 25 31 0 35 3 35 25 0 22 -4 25 -35 25 -31 0 -35 3
-35 25 0 23 3 25 50 25 47 0 50 2 50 25 0 24 -2 25 -75 25 l-75 0 0 -125z"/>
<path d="M1890 1050 l0 -120 54 0 c44 0 60 5 85 26 32 27 55 89 45 120 -23 71
-56 94 -134 94 l-50 0 0 -120z m117 57 c7 -7 15 -26 19 -42 7 -39 -26 -85 -62
-85 -23 0 -24 2 -24 76 l0 76 28 -7 c15 -3 33 -12 39 -18z"/>
<path d="M2714 1058 c-27 -61 -50 -115 -52 -120 -8 -18 48 -7 58 12 8 14 21
20 45 20 23 0 41 -7 52 -20 17 -19 68 -29 61 -12 -31 77 -104 232 -109 232 -3
0 -28 -50 -55 -112z m70 -24 c9 -23 8 -24 -14 -24 -11 0 -20 2 -20 4 0 12 13
36 20 36 4 0 11 -7 14 -16z"/>
</g>
</svg>
